<?xml version="1.0" encoding="iso-8859-1"?>
<!-- Generator: Adobe Illustrator 19.0.0, SVG Export Plug-In . SVG Version: 6.00 Build 0)  -->
<svg version="1.1" id="Capa_1" xmlns="http://www.w3.org/2000/svg" xmlns:xlink="http://www.w3.org/1999/xlink" x="0px" y="0px"
	 viewBox="0 0 490 490" style="enable-background:new 0 0 490 490;" xml:space="preserve">
<g>
	<path d="M189.432,344.023H30.625V118.075L237.03,243.826c2.452,1.488,5.204,2.236,7.97,2.236c2.781,0,5.548-0.755,8.015-2.266
		l206.36-126.684v242.223H490V30.117H0v344.531h189.432V344.023z M459.375,60.742v20.435L244.97,212.798L30.625,82.21V60.742
		H459.375z"/>
	<path d="M371.082,409.525c28.01,0,53.04-26.222,53.04-70.919c0-49.762-34.863-86.116-86.712-86.116
		c-66.151,0-108.762,53.04-108.762,114.424c0,57.212,41.419,92.969,90.288,92.969c19.965,0,36.651-3.278,53.04-11.919l-4.768-12.813
		c-12.217,6.854-28.01,10.429-44.995,10.429c-44.101,0-76.58-30.692-76.58-80.454c0-60.49,40.823-98.929,89.393-98.929
		c46.187,0,72.111,30.99,72.111,74.196c0,34.566-16.984,54.828-32.181,54.53c-9.833-0.298-13.409-10.727-8.939-33.373l10.131-53.934
		c-7.747-3.576-19.071-6.257-31.884-6.257c-41.419,0-70.621,33.671-70.621,70.621c0,23.54,14.899,37.545,32.181,37.545
		c17.879,0,31.586-8.641,42.015-26.222h1.192C348.137,401.48,359.162,409.525,371.082,409.525z M312.976,393.434
		c-13.111,0-19.667-9.535-19.667-22.646c0-28.904,21.156-53.636,47.378-53.636c6.854,0,11.919,1.192,14.899,2.086l-6.257,33.671
		C346.051,371.384,330.259,393.434,312.976,393.434z"/>
</g>
<g>
</g>
<g>
</g>
<g>
</g>
<g>
</g>
<g>
</g>
<g>
</g>
<g>
</g>
<g>
</g>
<g>
</g>
<g>
</g>
<g>
</g>
<g>
</g>
<g>
</g>
<g>
</g>
<g>
</g>
</svg>
